<?xml version="1.0" standalone="no"?>
<!DOCTYPE svg PUBLIC "-//W3C//DTD SVG 20010904//EN"
 "http://www.w3.org/TR/2001/REC-SVG-20010904/DTD/svg10.dtd">
<svg version="1.0" xmlns="http://www.w3.org/2000/svg"
 width="188.000000pt" height="199.000000pt" viewBox="0 0 188.000000 199.000000"
 preserveAspectRatio="xMidYMid meet">

<g transform="translate(0.000000,199.000000) scale(0.100000,-0.100000)"
fill="#000000" stroke="none">
<path d="M805 1890 c-216 -45 -360 -124 -501 -273 -102 -107 -169 -229 -210
-382 -28 -105 -26 -360 5 -470 58 -215 186 -391 369 -510 124 -79 236 -120
408 -145 68 -10 97 -9 185 5 229 36 401 124 544 276 156 166 235 372 235 615
0 246 -76 446 -234 611 -144 153 -286 229 -506 274 -113 22 -187 22 -295 -1z
m235 -274 c0 -2 -19 -16 -42 -32 -45 -31 -120 -126 -145 -184 -62 -143 -56
-311 15 -444 35 -67 135 -167 198 -199 92 -46 158 -60 268 -55 75 3 114 10
150 26 27 12 51 20 53 18 12 -11 -58 -109 -126 -176 -188 -187 -456 -231 -696
-116 -367 175 -462 662 -189 965 80 89 195 157 314 186 49 12 200 21 200 11z"/>
</g>
</svg>
