<?xml version="1.0" standalone="no"?>
<!DOCTYPE svg PUBLIC "-//W3C//DTD SVG 20010904//EN"
 "http://www.w3.org/TR/2001/REC-SVG-20010904/DTD/svg10.dtd">
<svg version="1.0" xmlns="http://www.w3.org/2000/svg"
 width="512.000000pt" height="512.000000pt" viewBox="0 0 512.000000 512.000000"
 preserveAspectRatio="xMidYMid meet">

<g transform="translate(0.000000,512.000000) scale(0.100000,-0.100000)"
fill="#000000" stroke="none">
<path d="M2366 4679 c-141 -21 -316 -83 -443 -156 -517 -302 -756 -900 -589
-1475 156 -536 657 -909 1221 -911 338 -1 640 118 882 347 460 435 534 1140
173 1660 -200 288 -522 488 -864 535 -89 13 -294 12 -380 0z m403 -440 c312
-78 562 -342 626 -658 23 -112 16 -294 -15 -401 -81 -280 -300 -500 -585 -586
-80 -24 -106 -27 -235 -27 -129 0 -155 3 -235 27 -237 72 -419 224 -526 441
-64 131 -80 194 -86 341 -11 253 74 471 248 642 218 212 517 294 808 221z"/>
<path d="M2300 1704 c-1087 -34 -1603 -292 -1835 -919 -32 -85 -36 -109 -33
-162 3 -50 10 -71 35 -105 41 -57 101 -88 170 -88 105 0 177 57 214 169 31 95
101 227 158 297 217 268 685 384 1551 384 885 0 1353 -120 1565 -402 56 -74
113 -186 145 -282 25 -78 77 -137 137 -157 54 -17 145 -7 187 22 99 66 119
164 66 311 -212 584 -670 853 -1560 917 -157 11 -631 20 -800 15z"/>
</g>
</svg>
